<?xml version="1.0" encoding="UTF-8"?>
<svg version="1.1" xmlns="http://www.w3.org/2000/svg" width="750" height="750">
<path d="M0 0 C0.84416473 -0.00137466 1.68832947 -0.00274933 2.55807495 -0.00416565 C3.48595825 -0.00057037 4.41384155 0.0030249 5.36984253 0.00672913 C6.83331619 0.00651009 6.83331619 0.00651009 8.32635498 0.00628662 C11.56206459 0.00698516 14.79771715 0.01477485 18.03341675 0.02259827 C20.27258269 0.02446265 22.51174903 0.02588646 24.75091553 0.02688599 C30.65283326 0.03070953 36.55472649 0.04053845 42.45663452 0.05158997 C48.47571481 0.06180757 54.49479904 0.06638436 60.5138855 0.07142639 C72.33030253 0.08216084 84.14670135 0.09923533 95.96310425 0.12025452 C96.14572144 4.92250061 96.14572144 4.92250061 94.50216675 6.70228577 C93.87052612 7.10834045 93.2388855 7.51439514 92.58810425 7.93275452 C91.96161987 8.35169983 91.3351355 8.77064514 90.68966675 9.20228577 C88.96310425 10.12025452 88.96310425 10.12025452 86.96310425 10.12025452 C86.96310425 10.78025452 86.96310425 11.44025452 86.96310425 12.12025452 C85.78747925 12.52244202 85.78747925 12.52244202 84.58810425 12.93275452 C81.68195502 13.96839884 81.68195502 13.96839884 79.96310425 17.12025452 C78.97310425 17.45025452 77.98310425 17.78025452 76.96310425 18.12025452 C76.13810425 18.94525452 75.31310425 19.77025452 74.46310425 20.62025452 C71.96310425 23.12025452 71.96310425 23.12025452 68.96310425 24.12025452 C68.15872925 24.92462952 67.35435425 25.72900452 66.52560425 26.55775452 C64.27572634 28.80763243 62.76497194 29.81938737 59.96310425 31.12025452 C59.63310425 31.78025452 59.30310425 32.44025452 58.96310425 33.12025452 C57.97310425 33.45025452 56.98310425 33.78025452 55.96310425 34.12025452 C55.63310425 34.78025452 55.30310425 35.44025452 54.96310425 36.12025452 C53.97310425 36.45025452 52.98310425 36.78025452 51.96310425 37.12025452 C51.63310425 37.78025452 51.30310425 38.44025452 50.96310425 39.12025452 C48.90060425 39.74525452 48.90060425 39.74525452 46.96310425 40.12025452 C46.96310425 40.78025452 46.96310425 41.44025452 46.96310425 42.12025452 C46.00404175 42.55337952 46.00404175 42.55337952 45.02560425 42.99525452 C42.81104346 43.94848903 42.81104346 43.94848903 41.96310425 46.12025452 C41.36497925 46.24400452 40.76685425 46.36775452 40.15060425 46.49525452 C37.23027475 47.32963437 35.94330189 48.86692616 33.96310425 51.12025452 C33.63310425 51.78025452 33.30310425 52.44025452 32.96310425 53.12025452 C31.97310425 53.45025452 30.98310425 53.78025452 29.96310425 54.12025452 C29.30310425 55.11025452 28.64310425 56.10025452 27.96310425 57.12025452 C27.15872925 57.24400452 26.35435425 57.36775452 25.52560425 57.49525452 C22.71988333 57.86942809 22.71988333 57.86942809 21.33810425 60.62025452 C20.88435425 61.44525452 20.43060425 62.27025452 19.96310425 63.12025452 C18.97310425 63.45025452 17.98310425 63.78025452 16.96310425 64.12025452 C16.63310425 64.78025452 16.30310425 65.44025452 15.96310425 66.12025452 C14.97310425 66.45025452 13.98310425 66.78025452 12.96310425 67.12025452 C12.63310425 67.78025452 12.30310425 68.44025452 11.96310425 69.12025452 C10.97310425 69.45025452 9.98310425 69.78025452 8.96310425 70.12025452 C8.63310425 70.78025452 8.30310425 71.44025452 7.96310425 72.12025452 C6.97310425 72.45025452 5.98310425 72.78025452 4.96310425 73.12025452 C4.63310425 73.78025452 4.30310425 74.44025452 3.96310425 75.12025452 C1.90060425 75.74525452 1.90060425 75.74525452 -0.03689575 76.12025452 C-0.03689575 76.78025452 -0.03689575 77.44025452 -0.03689575 78.12025452 C-0.65564575 78.20275452 -1.27439575 78.28525452 -1.91189575 78.37025452 C-4.21159012 78.90156777 -4.21159012 78.90156777 -4.97439575 81.05775452 C-6.44742368 83.91716167 -8.05501344 84.03593367 -11.03689575 85.12025452 C-14.99792221 87.45027008 -17.16030744 88.96495183 -19.03689575 93.12025452 C-21.40141255 95.17967237 -23.03314425 96.11900402 -26.03689575 97.12025452 C-26.36689575 97.78025452 -26.69689575 98.44025452 -27.03689575 99.12025452 C-28.52189575 99.61525452 -28.52189575 99.61525452 -30.03689575 100.12025452 C-30.36689575 100.78025452 -30.69689575 101.44025452 -31.03689575 102.12025452 C-32.52189575 102.61525452 -32.52189575 102.61525452 -34.03689575 103.12025452 C-34.36689575 103.78025452 -34.69689575 104.44025452 -35.03689575 105.12025452 C-37.09939575 105.74525452 -37.09939575 105.74525452 -39.03689575 106.12025452 C-39.03689575 106.78025452 -39.03689575 107.44025452 -39.03689575 108.12025452 C-39.67627075 108.22337952 -40.31564575 108.32650452 -40.97439575 108.43275452 C-41.65502075 108.65962952 -42.33564575 108.88650452 -43.03689575 109.12025452 C-43.53189575 110.60525452 -43.53189575 110.60525452 -44.03689575 112.12025452 C-45.52189575 112.61525452 -45.52189575 112.61525452 -47.03689575 113.12025452 C-49.80481842 114.15822552 -50.82789212 114.74404798 -52.28689575 117.37025452 C-55.24491072 122.01856376 -59.81865159 125.38083979 -65.03689575 127.12025452 C-65.36689575 127.78025452 -65.69689575 128.44025452 -66.03689575 129.12025452 C-67.02689575 129.45025452 -68.01689575 129.78025452 -69.03689575 130.12025452 C-69.36689575 130.78025452 -69.69689575 131.44025452 -70.03689575 132.12025452 C-71.02689575 132.45025452 -72.01689575 132.78025452 -73.03689575 133.12025452 C-73.36689575 133.78025452 -73.69689575 134.44025452 -74.03689575 135.12025452 C-74.71768692 135.10772644 -75.39847809 135.09519836 -76.09989929 135.08229065 C-82.5850234 134.96319535 -89.07017035 134.84543829 -95.55534458 134.72910309 C-98.88766907 134.66928069 -102.21997937 134.6088325 -105.55227661 134.54750061 C-109.40259665 134.47672001 -113.2529392 134.4074174 -117.103302 134.33900452 C-118.34053009 134.31676819 -119.57775818 134.29453186 -120.85247803 134.2716217 C-128.40357967 134.14309557 -135.94619862 134.08888123 -143.49758911 134.20033264 C-146.03689575 134.12025452 -146.03689575 134.12025452 -149.03689575 133.12025452 C-147.66177434 130.15845456 -146.03320149 127.6988161 -144.03689575 125.12025452 C-143.37689575 124.13025452 -142.71689575 123.14025452 -142.03689575 122.12025452 C-141.42201294 121.97330139 -140.80713013 121.82634827 -140.1736145 121.67494202 C-137.25144447 120.91635309 -135.94259619 119.38950863 -133.84939575 117.24525452 C-133.15459106 116.54658264 -132.45978638 115.84791077 -131.743927 115.12806702 C-129.83440682 113.13540712 -129.83440682 113.13540712 -129.03689575 110.12025452 C-128.45939575 110.01712952 -127.88189575 109.91400452 -127.28689575 109.80775452 C-123.7153841 108.71645929 -122.22896827 106.02326948 -120.03689575 103.12025452 C-119.70689575 102.46025452 -119.37689575 101.80025452 -119.03689575 101.12025452 C-118.41814575 100.98490295 -117.79939575 100.84955139 -117.16189575 100.71009827 C-114.46613136 99.96182543 -113.71799921 98.88006637 -112.03689575 96.68275452 C-109.89219412 93.8911456 -108.18029304 92.64846743 -105.03689575 91.12025452 C-102.45497899 88.23096671 -100.18580762 85.34362232 -98.03689575 82.12025452 C-96.7040488 81.78498167 -95.37066462 81.45184084 -94.03689575 81.12025452 C-92.09704099 79.61611553 -92.09704099 79.61611553 -90.34939575 77.74525452 C-89.74740356 77.13939514 -89.14541138 76.53353577 -88.525177 75.90931702 C-86.82248983 74.08303452 -86.82248983 74.08303452 -86.03689575 71.12025452 C-85.43877075 70.99650452 -84.84064575 70.87275452 -84.22439575 70.74525452 C-80.13965602 69.57818602 -78.29405262 65.50598981 -76.03689575 62.12025452 C-75.40138794 61.96427795 -74.76588013 61.80830139 -74.1111145 61.64759827 C-71.42129701 60.96374636 -70.57624293 59.81800771 -68.84939575 57.68275452 C-68.34021606 57.06529358 -67.83103638 56.44783264 -67.306427 55.81166077 C-65.97080999 54.13745706 -65.97080999 54.13745706 -65.03689575 52.12025452 C-64.42072388 51.98361389 -63.804552 51.84697327 -63.16970825 51.70619202 C-60.48237423 50.96791344 -59.64380588 49.89427389 -57.91189575 47.74525452 C-57.41431763 47.13939514 -56.9167395 46.53353577 -56.40408325 45.90931702 C-55.21918337 44.35879088 -54.11936004 42.74395095 -53.03689575 41.12025452 C-52.41814575 40.99650452 -51.79939575 40.87275452 -51.16189575 40.74525452 C-47.13072146 39.55961502 -45.26939365 35.46900136 -43.03689575 32.12025452 C-42.43877075 32.01712952 -41.84064575 31.91400452 -41.22439575 31.80775452 C-36.84316708 30.43079693 -34.48647821 25.7946282 -32.03689575 22.12025452 C-31.10877075 21.93462952 -31.10877075 21.93462952 -30.16189575 21.74525452 C-27.00296164 20.81615625 -25.89341687 18.74499127 -24.03689575 16.12025452 C-23.70689575 15.46025452 -23.37689575 14.80025452 -23.03689575 14.12025452 C-22.37689575 14.12025452 -21.71689575 14.12025452 -21.03689575 14.12025452 C-20.70689575 13.13025452 -20.37689575 12.14025452 -20.03689575 11.12025452 C-19.43877075 10.99650452 -18.84064575 10.87275452 -18.22439575 10.74525452 C-14.13965602 9.57818602 -12.29405262 5.50598981 -10.03689575 2.12025452 C-8.03689575 1.49525452 -8.03689575 1.49525452 -6.03689575 1.12025452 C-3.76112107 -0.01763282 -2.52656151 -0.00316612 0 0 Z " fill="#BFBFBF" transform="translate(456.0368957519531,313.87974548339844)"/>
<path d="M0 0 C1.125 4.75 1.125 4.75 0 7 C-0.639375 7.12375 -1.27875 7.2475 -1.9375 7.375 C-2.618125 7.58125 -3.29875 7.7875 -4 8 C-4.309375 8.66 -4.61875 9.32 -4.9375 10 C-5.288125 10.66 -5.63875 11.32 -6 12 C-8.625 12.75 -8.625 12.75 -11 13 C-11 13.66 -11 14.32 -11 15 C-11.639375 15.103125 -12.27875 15.20625 -12.9375 15.3125 C-13.618125 15.539375 -14.29875 15.76625 -15 16 C-15.33 16.99 -15.66 17.98 -16 19 C-18.97 19.495 -18.97 19.495 -22 20 C-21.67 20.99 -21.34 21.98 -21 23 C-22.4334152 24.15093925 -23.87188909 25.29558035 -25.3125 26.4375 C-26.11300781 27.07558594 -26.91351562 27.71367187 -27.73828125 28.37109375 C-30 30 -30 30 -33 31 C-33.33 31.66 -33.66 32.32 -34 33 C-34.99 33.33 -35.98 33.66 -37 34 C-37.33 34.66 -37.66 35.32 -38 36 C-38.99 36.33 -39.98 36.66 -41 37 C-41.33 37.66 -41.66 38.32 -42 39 C-44.0625 39.625 -44.0625 39.625 -46 40 C-46 40.66 -46 41.32 -46 42 C-47.32 42.33 -48.64 42.66 -50 43 C-50 43.66 -50 44.32 -50 45 C-50.66 45 -51.32 45 -52 45 C-52 45.66 -52 46.32 -52 47 C-52.99 47.33 -53.98 47.66 -55 48 C-55.33 48.66 -55.66 49.32 -56 50 C-56.763125 50.0825 -57.52625 50.165 -58.3125 50.25 C-62.17253014 51.32721771 -62.93804522 53.67426649 -65 57 C-67.40902188 59.11701923 -68.93132383 59.97710794 -72 61 C-72.33 61.66 -72.66 62.32 -73 63 C-73.99 63.33 -74.98 63.66 -76 64 C-76.33 64.66 -76.66 65.32 -77 66 C-77.99 66.33 -78.98 66.66 -80 67 C-80.33 67.66 -80.66 68.32 -81 69 C-81.99 69.33 -82.98 69.66 -84 70 C-84.33 70.66 -84.66 71.32 -85 72 C-85.99 72.33 -86.98 72.66 -88 73 C-88.33 73.66 -88.66 74.32 -89 75 C-89.99 75.2165625 -89.99 75.2165625 -91 75.4375 C-91.66 75.623125 -92.32 75.80875 -93 76 C-93.33 76.99 -93.66 77.98 -94 79 C-94.99 79.33 -95.98 79.66 -97 80 C-97.33 80.66 -97.66 81.32 -98 82 C-98.66 82 -99.32 82 -100 82 C-100 82.66 -100 83.32 -100 84 C-101.175625 84.4021875 -101.175625 84.4021875 -102.375 84.8125 C-105.28114923 85.84814432 -105.28114923 85.84814432 -107 89 C-107.680625 89.165 -108.36125 89.33 -109.0625 89.5 C-109.701875 89.665 -110.34125 89.83 -111 90 C-111.495 91.485 -111.495 91.485 -112 93 C-113.485 93.495 -113.485 93.495 -115 94 C-115.825 94.825 -116.65 95.65 -117.5 96.5 C-120 99 -120 99 -123 100 C-123.33 100.66 -123.66 101.32 -124 102 C-125.485 102.495 -125.485 102.495 -127 103 C-127.33 103.66 -127.66 104.32 -128 105 C-129.485 105.495 -129.485 105.495 -131 106 C-131.33 106.66 -131.66 107.32 -132 108 C-132.99 108.2165625 -132.99 108.2165625 -134 108.4375 C-134.66 108.623125 -135.32 108.80875 -136 109 C-136.495 110.485 -136.495 110.485 -137 112 C-138.33333333 112.33333333 -139.66666667 112.66666667 -141 113 C-141.495 114.485 -141.495 114.485 -142 116 C-143.485 116.495 -143.485 116.495 -145 117 C-145.66 117.99 -146.32 118.98 -147 120 C-148.485 120.495 -148.485 120.495 -150 121 C-150.33 121.66 -150.66 122.32 -151 123 C-152.485 123.495 -152.485 123.495 -154 124 C-154.33 124.66 -154.66 125.32 -155 126 C-156.65614657 126.38218767 -158.32457024 126.71395102 -160 127 C-160.66 127.33 -161.32 127.66 -162 128 C-164.18540811 128.09188942 -166.37369969 128.11750236 -168.56103516 128.11352539 C-169.23432358 128.11367142 -169.907612 128.11381744 -170.6013031 128.1139679 C-172.83058881 128.11327027 -175.05979135 128.10548489 -177.2890625 128.09765625 C-178.83320063 128.09579154 -180.37733934 128.09436789 -181.92147827 128.09336853 C-185.98870472 128.08954754 -190.05589555 128.07972082 -194.12310791 128.06866455 C-198.2721712 128.05844144 -202.42124025 128.05386898 -206.5703125 128.04882812 C-214.71355803 128.03809819 -222.85677458 128.02102677 -231 128 C-229.57150141 125.05717029 -228.01630075 122.58086496 -226 120 C-225.2884375 118.9171875 -225.2884375 118.9171875 -224.5625 117.8125 C-223 116 -223 116 -221.125 115.625 C-216.95249991 114.39779409 -214.43093659 109.58764081 -211.9375 106.1875 C-209.79487266 103.76840462 -209.00630999 103.67884419 -206 103 C-204.97971135 101.68212715 -203.98028616 100.34789347 -203 99 C-202.39542969 98.70867187 -201.79085938 98.41734375 -201.16796875 98.1171875 C-198.57067143 96.77876041 -196.86784005 95.13326474 -194.8125 93.0625 C-194.11769531 92.37285156 -193.42289062 91.68320312 -192.70703125 90.97265625 C-190.79261254 89.01392867 -190.79261254 89.01392867 -190 86 C-189.4225 85.896875 -188.845 85.79375 -188.25 85.6875 C-184.67848835 84.59620477 -183.19207252 81.90301496 -181 79 C-180.67 78.34 -180.34 77.68 -180 77 C-179.4225 76.9175 -178.845 76.835 -178.25 76.75 C-174.71109026 75.57036342 -173.19530994 72.90730235 -171 70 C-170.67 69.34 -170.34 68.68 -170 68 C-169.09314453 67.79503906 -169.09314453 67.79503906 -168.16796875 67.5859375 C-165.43336435 66.84685523 -164.27525496 65.6431038 -162.3125 63.625 C-161.71050781 63.01914062 -161.10851562 62.41328125 -160.48828125 61.7890625 C-158.78559408 59.96278 -158.78559408 59.96278 -158 57 C-156.66782459 56.66206871 -155.33433172 56.32931405 -154 56 C-152.27701548 54.46227045 -152.27701548 54.46227045 -150.8125 52.5625 C-150.30332031 51.94503906 -149.79414063 51.32757813 -149.26953125 50.69140625 C-147.93391424 49.01720254 -147.93391424 49.01720254 -147 47 C-146.39414062 46.86207031 -145.78828125 46.72414062 -145.1640625 46.58203125 C-142.45237742 45.85271523 -141.32056234 44.68877228 -139.375 42.6875 C-138.78460938 42.09324219 -138.19421875 41.49898437 -137.5859375 40.88671875 C-135.91918143 39.05493081 -135.91918143 39.05493081 -134.91015625 36.80078125 C-134.45962891 35.90939453 -134.45962891 35.90939453 -134 35 C-132.66923011 34.65657551 -131.33568021 34.32380126 -130 34 C-128.41977909 32.22743787 -128.41977909 32.22743787 -127 30 C-124.38501832 26.37276734 -123.2284631 25.05711578 -119 24 C-116.91859167 21.73219193 -116.91859167 21.73219193 -115 19 C-111.44147157 14.10702341 -111.44147157 14.10702341 -108.9375 13.5 C-106.7010841 13.16455161 -106.7010841 13.16455161 -105.5 10.5 C-105.005 9.675 -104.51 8.85 -104 8 C-103.071875 7.7834375 -103.071875 7.7834375 -102.125 7.5625 C-98.58253456 6.62478856 -97.15532467 3.87376622 -95 1 C-95 0.67 -95 0.34 -95 0 C-83.05657208 -0.15371903 -71.11308963 -0.30190072 -59.16950512 -0.4429636 C-53.62395141 -0.50863592 -48.07843496 -0.57623376 -42.53295898 -0.64819336 C-37.18381214 -0.71753514 -31.83462659 -0.78186961 -26.48537636 -0.84269524 C-24.44196692 -0.86681786 -22.39857816 -0.89276145 -20.35521507 -0.92053413 C-17.49880584 -0.95904998 -14.64239243 -0.99115934 -11.78588867 -1.02172852 C-10.93640656 -1.03467453 -10.08692444 -1.04762054 -9.21170044 -1.06095886 C-5.87368366 -1.09115309 -3.19089208 -1.06363069 0 0 Z M-125 28 C-124 30 -124 30 -124 30 Z M-224 118 C-223 120 -223 120 -223 120 Z " fill="#C0C0C0" transform="translate(541,200)"/>
<path d="M0 0 C0.97594116 -0.00043808 1.95188232 -0.00087616 2.95739746 -0.00132751 C6.18241396 0.00076209 9.40691027 0.02410166 12.63183594 0.04760742 C14.86814083 0.05320275 17.1044494 0.05747315 19.34075928 0.06047058 C25.22629959 0.07192423 31.11161776 0.10139613 36.99707031 0.13458252 C43.00289912 0.16527205 49.00876382 0.17897354 55.01464844 0.1940918 C66.7986002 0.22626513 78.58238709 0.27746797 90.36621094 0.34057617 C90.36621094 1.33057617 90.36621094 2.32057617 90.36621094 3.34057617 C55.69954427 3.34057617 21.0328776 3.34057617 -13.63378906 3.34057617 C-9.76494754 -0.75196152 -5.23447485 -0.06132137 0 0 Z " fill="#E7E7E8" transform="translate(461.6337890625,313.659423828125)"/>
<path d="M0 0 C17.49 0 34.98 0 53 0 C53 0.33 53 0.66 53 1 C35.51 1 18.02 1 0 1 C0 0.67 0 0.34 0 0 Z " fill="#E9E9EB" transform="translate(498,312)"/>
<path d="M0 0 C0.66 0.33 1.32 0.66 2 1 C-0.36423164 5.53766564 -3.41073969 8.48058779 -7.1875 11.8125 C-8.02571289 12.56563477 -8.02571289 12.56563477 -8.88085938 13.33398438 C-10.24883954 14.56165889 -11.62372916 15.7816269 -13 17 C-13.66 16.67 -14.32 16.34 -15 16 C-13.66666667 14.33333333 -12.33333333 12.66666667 -11 11 C-10.34 10.0925 -9.68 9.185 -9 8.25 C-7 6 -7 6 -4.9375 5.5 C-2.6873105 5.14617079 -2.6873105 5.14617079 -1.25 2.4375 C-0.8375 1.633125 -0.425 0.82875 0 0 Z " fill="#D8D8D8" transform="translate(437,208)"/>
<path d="M0 0 C0 3 0 3 -2.625 5.69921875 C-3.74254026 6.70367458 -4.86791033 7.69947129 -6 8.6875 C-6.57234375 9.19861328 -7.1446875 9.70972656 -7.734375 10.23632812 C-9.14967213 11.4983014 -10.57400269 12.75013033 -12 14 C-12.66 13.67 -13.32 13.34 -14 13 C-12.73046875 11.50260417 -11.4609375 10.00520833 -10.19140625 8.5078125 C-8.9121848 6.99405921 -8.9121848 6.99405921 -8 5 C-7.401875 4.87625 -6.80375 4.7525 -6.1875 4.625 C-3.29805668 3.79944477 -1.98392064 2.19648357 0 0 Z " fill="#CBCBCB" transform="translate(379,263)"/>
<path d="M0 0 C0 3 0 3 -1.79296875 5.19140625 C-2.58316406 5.97386719 -3.37335938 6.75632813 -4.1875 7.5625 C-4.96480469 8.34753906 -5.74210937 9.13257813 -6.54296875 9.94140625 C-8.98212714 11.98502544 -10.99742699 13.01336411 -14 14 C-12.75 11.0625 -12.75 11.0625 -11 8 C-9.66666667 7.66666667 -8.33333333 7.33333333 -7 7 C-5.02826646 5.38945138 -5.02826646 5.38945138 -3.25 3.4375 C-2.63640625 2.79683594 -2.0228125 2.15617188 -1.390625 1.49609375 C-0.93171875 1.00238281 -0.4728125 0.50867188 0 0 Z " fill="#D4D4D5" transform="translate(405,239)"/>
<path d="M0 0 C0.66 0.33 1.32 0.66 2 1 C-1.27094033 6.45156722 -5.41853326 10.61869443 -10 15 C-10 11.49250024 -9.5242631 11.11317894 -7.25 8.625 C-6.70601563 8.01785156 -6.16203125 7.41070312 -5.6015625 6.78515625 C-5.07304687 6.19605469 -4.54453125 5.60695313 -4 5 C-2.65807132 3.34024611 -1.32090525 1.67653359 0 0 Z " fill="#C9C9C9" transform="translate(331,304)"/>
<path d="M0 0 C0.66 0.33 1.32 0.66 2 1 C-0.19409644 5.14440439 -3.00743484 9.40336838 -7 12 C-9.19140625 11.6640625 -9.19140625 11.6640625 -11 11 C-10.67 10.34 -10.34 9.68 -10 9 C-9.401875 8.896875 -8.80375 8.79375 -8.1875 8.6875 C-4.12122681 7.40952842 -2.27209313 3.40813969 0 0 Z " fill="#D1D1D2" transform="translate(380,376)"/>
<path d="M0 0 C0 0.99 0 1.98 0 3 C-2.5 5.1875 -2.5 5.1875 -5 7 C-5.66 6.67 -6.32 6.34 -7 6 C-6.25 4.0625 -6.25 4.0625 -5 2 C-2.9375 1.3125 -2.9375 1.3125 -1 1 C-0.67 0.67 -0.34 0.34 0 0 Z " fill="#CBCBCB" transform="translate(408,353)"/>
<path d="M0 0 C2.64 0 5.28 0 8 0 C8 0.33 8 0.66 8 1 C5.36 1 2.72 1 0 1 C0 0.67 0 0.34 0 0 Z " fill="#9F9F9F" transform="translate(353,329)"/>
<path d="M0 0 C0.66 0.33 1.32 0.66 2 1 C0.02 1.99 0.02 1.99 -2 3 C-1.34 2.01 -0.68 1.02 0 0 Z " fill="#9F9F9F" transform="translate(480,251)"/>
<path d="M0 0 C0.66 0.33 1.32 0.66 2 1 C1.01 1.66 0.02 2.32 -1 3 C-0.67 2.01 -0.34 1.02 0 0 Z " fill="#A1A1A1" transform="translate(317,433)"/>
<path d="M0 0 C0.66 0.33 1.32 0.66 2 1 C1.01 1.66 0.02 2.32 -1 3 C-0.67 2.01 -0.34 1.02 0 0 Z " fill="#E5E5E5" transform="translate(340,412)"/>
<path d="M0 0 C1.65 0 3.3 0 5 0 C5 0.33 5 0.66 5 1 C3.35 1 1.7 1 0 1 C0 0.67 0 0.34 0 0 Z " fill="#333333" transform="translate(368,329)"/>
<path d="M0 0 C0.66 0.33 1.32 0.66 2 1 C0.68 1.33 -0.64 1.66 -2 2 C-1.34 1.34 -0.68 0.68 0 0 Z " fill="#B2B2B2" transform="translate(381,327)"/>
<path d="M0 0 C1.65 0 3.3 0 5 0 C5 0.33 5 0.66 5 1 C3.35 1 1.7 1 0 1 C0 0.67 0 0.34 0 0 Z " fill="#FFFFFF" transform="translate(486,312)"/>
<path d="M0 0 C1.65 0 3.3 0 5 0 C5 0.33 5 0.66 5 1 C3.35 1 1.7 1 0 1 C0 0.67 0 0.34 0 0 Z " fill="#999999" transform="translate(473,312)"/>
<path d="M0 0 C1.65 0 3.3 0 5 0 C5 0.33 5 0.66 5 1 C3.35 1 1.7 1 0 1 C0 0.67 0 0.34 0 0 Z " fill="#CCCCCC" transform="translate(460,312)"/>
<path d="M0 0 C0.66 0.33 1.32 0.66 2 1 C1.01 1.66 0.02 2.32 -1 3 C-0.67 2.01 -0.34 1.02 0 0 Z " fill="#909090" transform="translate(341,295)"/>
<path d="M0 0 C0.66 0.33 1.32 0.66 2 1 C1.01 1.66 0.02 2.32 -1 3 C-0.67 2.01 -0.34 1.02 0 0 Z " fill="#CCCCBB" transform="translate(364,274)"/>
<path d="M0 0 C0.66 0.33 1.32 0.66 2 1 C1.01 1.66 0.02 2.32 -1 3 C-0.67 2.01 -0.34 1.02 0 0 Z " fill="#999999" transform="translate(374,265)"/>
<path d="M0 0 C0.66 0.33 1.32 0.66 2 1 C1.01 1 0.02 1 -1 1 C-0.67 0.67 -0.34 0.34 0 0 Z " fill="#CFCFCF" transform="translate(480,371)"/>
<path d="M0 0 C4 1 4 1 4 1 Z " fill="#BFBFBF" transform="translate(480,312)"/>
<path d="M0 0 C4 1 4 1 4 1 Z " fill="#7F7F7F" transform="translate(468,312)"/>
<path d="M0 0 C3 1 3 1 3 1 Z " fill="#AAAAAA" transform="translate(367,449)"/>
<path d="M0 0 C3 1 3 1 3 1 Z " fill="#AAAAAA" transform="translate(360,449)"/>
<path d="M0 0 C0.99 0.495 0.99 0.495 2 1 C1.01 1.495 1.01 1.495 0 2 C0 1.34 0 0.68 0 0 Z " fill="#E9E9E9" transform="translate(307,442)"/>
<path d="M0 0 C0.99 0.495 0.99 0.495 2 1 C1.01 1.495 1.01 1.495 0 2 C0 1.34 0 0.68 0 0 Z " fill="#B2B2B2" transform="translate(349,404)"/>
<path d="M0 0 C0.33 0.66 0.66 1.32 1 2 C0.34 1.67 -0.32 1.34 -1 1 C-0.67 0.67 -0.34 0.34 0 0 Z " fill="#6A6A6A" transform="translate(440,402)"/>
<path d="M0 0 C0.99 0.495 0.99 0.495 2 1 C1.01 1.495 1.01 1.495 0 2 C0 1.34 0 0.68 0 0 Z " fill="#6A6A6A" transform="translate(360,394)"/>
<path d="M0 0 C0.99 0.495 0.99 0.495 2 1 C1.01 1.495 1.01 1.495 0 2 C0 1.34 0 0.68 0 0 Z " fill="#B2B2B2" transform="translate(382,374)"/>
<path d="M0 0 C0.99 0.495 0.99 0.495 2 1 C1.01 1.495 1.01 1.495 0 2 C0 1.34 0 0.68 0 0 Z " fill="#C3C3C3" transform="translate(415,344)"/>
<path d="M0 0 C0.99 0.495 0.99 0.495 2 1 C1.01 1.495 1.01 1.495 0 2 C0 1.34 0 0.68 0 0 Z " fill="#636363" transform="translate(321,313)"/>
<path d="M0 0 C3 1 3 1 3 1 Z " fill="#555555" transform="translate(492,312)"/>
<path d="M0 0 C0.99 0.495 0.99 0.495 2 1 C1.01 1.495 1.01 1.495 0 2 C0 1.34 0 0.68 0 0 Z " fill="#E2E2E2" transform="translate(396,245)"/>
<path d="M0 0 C0.99 0.495 0.99 0.495 2 1 C1.01 1.495 1.01 1.495 0 2 C0 1.34 0 0.68 0 0 Z " fill="#8D8D8D" transform="translate(420,223)"/>
<path d="M0 0 C0.99 0.495 0.99 0.495 2 1 C1.01 1.495 1.01 1.495 0 2 C0 1.34 0 0.68 0 0 Z " fill="#B2B2B2" transform="translate(439,206)"/>
<path d="M0 0 C2 1 2 1 2 1 Z " fill="#FFFFFF" transform="translate(373,449)"/>
<path d="M0 0 C2 1 2 1 2 1 Z " fill="#000000" transform="translate(335,449)"/>
<path d="M0 0 C2 1 2 1 2 1 Z " fill="#7F7F7F" transform="translate(307,448)"/>
<path d="" fill="#3F3F3F" transform="translate(0,0)"/>
<path d="M0 0 C2 1 2 1 2 1 Z " fill="#AAAAAA" transform="translate(441,401)"/>
<path d="M0 0 C2 1 2 1 2 1 Z " fill="#FFFFBF" transform="translate(492,362)"/>
<path d="" fill="#FFFFFF" transform="translate(0,0)"/>
<path d="M0 0 C2 1 2 1 2 1 Z " fill="#D4D4D4" transform="translate(531,212)"/>
<path d="" fill="#FFFFFF" transform="translate(0,0)"/>
<path d="" fill="#000000" transform="translate(0,0)"/>
<path d="" fill="#FFFFFF" transform="translate(0,0)"/>
<path d="" fill="#000000" transform="translate(0,0)"/>
<path d="" fill="#AAAAAA" transform="translate(0,0)"/>
<path d="" fill="#FFFFFF" transform="translate(0,0)"/>
<path d="" fill="#7F7F7F" transform="translate(0,0)"/>
<path d="" fill="#BFBFBF" transform="translate(0,0)"/>
<path d="" fill="#FFFFFF" transform="translate(0,0)"/>
<path d="" fill="#7F7F7F" transform="translate(0,0)"/>
<path d="" fill="#FFFFFF" transform="translate(0,0)"/>
<path d="" fill="#FFFFFF" transform="translate(0,0)"/>
<path d="" fill="#FFFFFF" transform="translate(0,0)"/>
<path d="" fill="#FFFFFF" transform="translate(0,0)"/>
<path d="" fill="#7F7F7F" transform="translate(0,0)"/>
<path d="" fill="#FFFFFF" transform="translate(0,0)"/>
<path d="" fill="#FFFFFF" transform="translate(0,0)"/>
<path d="" fill="#FFFFFF" transform="translate(0,0)"/>
<path d="" fill="#BFBFBF" transform="translate(0,0)"/>
<path d="" fill="#FFFFFF" transform="translate(0,0)"/>
<path d="" fill="#FFFFFF" transform="translate(0,0)"/>
<path d="" fill="#AAAAAA" transform="translate(0,0)"/>
<path d="" fill="#AAAAAA" transform="translate(0,0)"/>
<path d="" fill="#AAAAAA" transform="translate(0,0)"/>
<path d="" fill="#7F7F7F" transform="translate(0,0)"/>
<path d="" fill="#AAAAAA" transform="translate(0,0)"/>
<path d="" fill="#FFFFFF" transform="translate(0,0)"/>
<path d="" fill="#7F7F7F" transform="translate(0,0)"/>
<path d="" fill="#FFFFFF" transform="translate(0,0)"/>
<path d="" fill="#FFFFFF" transform="translate(0,0)"/>
<path d="" fill="#FFFFFF" transform="translate(0,0)"/>
<path d="" fill="#7F7F7F" transform="translate(0,0)"/>
<path d="" fill="#AAAAAA" transform="translate(0,0)"/>
<path d="" fill="#7F7F7F" transform="translate(0,0)"/>
<path d="" fill="#AAAAAA" transform="translate(0,0)"/>
<path d="" fill="#AAAAAA" transform="translate(0,0)"/>
<path d="" fill="#FFFFFF" transform="translate(0,0)"/>
<path d="" fill="#FFFFFF" transform="translate(0,0)"/>
<path d="" fill="#7F7F7F" transform="translate(0,0)"/>
<path d="" fill="#AAAAAA" transform="translate(0,0)"/>
<path d="" fill="#7F7F7F" transform="translate(0,0)"/>
<path d="" fill="#BFBFBF" transform="translate(0,0)"/>
<path d="" fill="#FFFFFF" transform="translate(0,0)"/>
<path d="" fill="#FFFFFF" transform="translate(0,0)"/>
<path d="" fill="#BFBFBF" transform="translate(0,0)"/>
<path d="" fill="#FFFFFF" transform="translate(0,0)"/>
<path d="" fill="#FFFFFF" transform="translate(0,0)"/>
<path d="" fill="#FFFFFF" transform="translate(0,0)"/>
<path d="" fill="#FFFFFF" transform="translate(0,0)"/>
<path d="" fill="#7F7F7F" transform="translate(0,0)"/>
<path d="" fill="#AAAAAA" transform="translate(0,0)"/>
<path d="" fill="#FFFFFF" transform="translate(0,0)"/>
<path d="" fill="#FFFFFF" transform="translate(0,0)"/>
<path d="" fill="#FFFFFF" transform="translate(0,0)"/>
<path d="" fill="#FFFFFF" transform="translate(0,0)"/>
<path d="" fill="#FFFFFF" transform="translate(0,0)"/>
<path d="" fill="#7F7F7F" transform="translate(0,0)"/>
<path d="" fill="#FFFFFF" transform="translate(0,0)"/>
<path d="" fill="#FFFFFF" transform="translate(0,0)"/>
<path d="" fill="#AAAAAA" transform="translate(0,0)"/>
<path d="" fill="#7F7F7F" transform="translate(0,0)"/>
<path d="" fill="#BFBFBF" transform="translate(0,0)"/>
<path d="" fill="#7F7F7F" transform="translate(0,0)"/>
<path d="" fill="#7F7F7F" transform="translate(0,0)"/>
<path d="" fill="#BFBFBF" transform="translate(0,0)"/>
<path d="" fill="#AAAAAA" transform="translate(0,0)"/>
<path d="" fill="#FFFFFF" transform="translate(0,0)"/>
<path d="" fill="#FFFFFF" transform="translate(0,0)"/>
<path d="" fill="#7F7F7F" transform="translate(0,0)"/>
<path d="" fill="#AAAAAA" transform="translate(0,0)"/>
<path d="" fill="#7F7F7F" transform="translate(0,0)"/>
<path d="" fill="#BFBFBF" transform="translate(0,0)"/>
<path d="" fill="#7F7F7F" transform="translate(0,0)"/>
<path d="" fill="#7F7F7F" transform="translate(0,0)"/>
<path d="" fill="#FFFFFF" transform="translate(0,0)"/>
<path d="" fill="#AAAAAA" transform="translate(0,0)"/>
<path d="" fill="#BFBFBF" transform="translate(0,0)"/>
<path d="" fill="#7F7F7F" transform="translate(0,0)"/>
<path d="" fill="#FFFFFF" transform="translate(0,0)"/>
<path d="" fill="#AAAAAA" transform="translate(0,0)"/>
<path d="" fill="#AAAAAA" transform="translate(0,0)"/>
<path d="" fill="#FFFFFF" transform="translate(0,0)"/>
<path d="" fill="#FFFFFF" transform="translate(0,0)"/>
<path d="" fill="#FFFFFF" transform="translate(0,0)"/>
<path d="" fill="#BFBFBF" transform="translate(0,0)"/>
<path d="" fill="#FFFFFF" transform="translate(0,0)"/>
<path d="" fill="#FFFFFF" transform="translate(0,0)"/>
<path d="" fill="#7F7F7F" transform="translate(0,0)"/>
<path d="" fill="#BFBFBF" transform="translate(0,0)"/>
<path d="" fill="#FFFFFF" transform="translate(0,0)"/>
<path d="" fill="#AAAAAA" transform="translate(0,0)"/>
<path d="" fill="#AAAAAA" transform="translate(0,0)"/>
<path d="" fill="#AAAAAA" transform="translate(0,0)"/>
<path d="" fill="#AAAAAA" transform="translate(0,0)"/>
<path d="" fill="#FFFFFF" transform="translate(0,0)"/>
<path d="" fill="#FFFFFF" transform="translate(0,0)"/>
<path d="" fill="#AAAAAA" transform="translate(0,0)"/>
<path d="" fill="#7F7F7F" transform="translate(0,0)"/>
<path d="" fill="#FFFFFF" transform="translate(0,0)"/>
<path d="" fill="#AAAAAA" transform="translate(0,0)"/>
<path d="" fill="#AAAAAA" transform="translate(0,0)"/>
<path d="" fill="#FFFFFF" transform="translate(0,0)"/>
<path d="" fill="#AAAAAA" transform="translate(0,0)"/>
<path d="" fill="#7F7F7F" transform="translate(0,0)"/>
<path d="" fill="#FFFFFF" transform="translate(0,0)"/>
<path d="" fill="#AAAAAA" transform="translate(0,0)"/>
<path d="" fill="#BFBFBF" transform="translate(0,0)"/>
<path d="" fill="#7F7F7F" transform="translate(0,0)"/>
<path d="" fill="#FFFFFF" transform="translate(0,0)"/>
<path d="" fill="#FFFFFF" transform="translate(0,0)"/>
<path d="" fill="#FFFFFF" transform="translate(0,0)"/>
<path d="" fill="#FFFFFF" transform="translate(0,0)"/>
<path d="" fill="#FFFFFF" transform="translate(0,0)"/>
<path d="" fill="#000000" transform="translate(0,0)"/>
<path d="" fill="#000000" transform="translate(0,0)"/>
<path d="" fill="#000000" transform="translate(0,0)"/>
<path d="" fill="#000000" transform="translate(0,0)"/>
<path d="" fill="#FFFFFF" transform="translate(0,0)"/>
<path d="" fill="#FFFFFF" transform="translate(0,0)"/>
<path d="" fill="#000000" transform="translate(0,0)"/>
<path d="" fill="#FF00FF" transform="translate(0,0)"/>
<path d="" fill="#000000" transform="translate(0,0)"/>
<path d="" fill="#FFFFFF" transform="translate(0,0)"/>
<path d="" fill="#000000" transform="translate(0,0)"/>
<path d="" fill="#AAAAAA" transform="translate(0,0)"/>
<path d="" fill="#FFFFFF" transform="translate(0,0)"/>
<path d="" fill="#FFFFFF" transform="translate(0,0)"/>
<path d="" fill="#BFBFBF" transform="translate(0,0)"/>
<path d="" fill="#AAAAAA" transform="translate(0,0)"/>
<path d="" fill="#7F7F7F" transform="translate(0,0)"/>
<path d="" fill="#FFFFFF" transform="translate(0,0)"/>
<path d="" fill="#FFFFFF" transform="translate(0,0)"/>
<path d="" fill="#FFFFFF" transform="translate(0,0)"/>
<path d="" fill="#FFFFFF" transform="translate(0,0)"/>
<path d="" fill="#FFFFFF" transform="translate(0,0)"/>
<path d="" fill="#FFFFFF" transform="translate(0,0)"/>
<path d="" fill="#FFFFFF" transform="translate(0,0)"/>
<path d="" fill="#FFFFFF" transform="translate(0,0)"/>
<path d="" fill="#7F7F7F" transform="translate(0,0)"/>
<path d="" fill="#FFFFFF" transform="translate(0,0)"/>
<path d="" fill="#FFFFFF" transform="translate(0,0)"/>
<path d="" fill="#FFFFFF" transform="translate(0,0)"/>
<path d="" fill="#FFFFFF" transform="translate(0,0)"/>
<path d="" fill="#AAAAAA" transform="translate(0,0)"/>
<path d="" fill="#555555" transform="translate(0,0)"/>
<path d="" fill="#FFFFFF" transform="translate(0,0)"/>
<path d="" fill="#AAAAAA" transform="translate(0,0)"/>
<path d="" fill="#BFBFBF" transform="translate(0,0)"/>
<path d="" fill="#FFFFFF" transform="translate(0,0)"/>
<path d="" fill="#7F7F7F" transform="translate(0,0)"/>
<path d="" fill="#7F7F7F" transform="translate(0,0)"/>
<path d="" fill="#7F7F7F" transform="translate(0,0)"/>
<path d="" fill="#FFFFFF" transform="translate(0,0)"/>
<path d="" fill="#AAAAAA" transform="translate(0,0)"/>
<path d="" fill="#7F7F7F" transform="translate(0,0)"/>
<path d="" fill="#FFFFFF" transform="translate(0,0)"/>
<path d="" fill="#FFFFFF" transform="translate(0,0)"/>
<path d="" fill="#7F7F7F" transform="translate(0,0)"/>
<path d="" fill="#7F7F7F" transform="translate(0,0)"/>
<path d="" fill="#FFFFFF" transform="translate(0,0)"/>
<path d="" fill="#AAAAAA" transform="translate(0,0)"/>
<path d="" fill="#FFFFFF" transform="translate(0,0)"/>
<path d="" fill="#7F7F7F" transform="translate(0,0)"/>
<path d="" fill="#FFFFFF" transform="translate(0,0)"/>
<path d="" fill="#FFFFFF" transform="translate(0,0)"/>
<path d="" fill="#FFFFFF" transform="translate(0,0)"/>
<path d="" fill="#FFFFFF" transform="translate(0,0)"/>
<path d="" fill="#FFFFFF" transform="translate(0,0)"/>
<path d="" fill="#FFFFFF" transform="translate(0,0)"/>
<path d="" fill="#7F7F7F" transform="translate(0,0)"/>
<path d="" fill="#FFFFFF" transform="translate(0,0)"/>
<path d="" fill="#AAAAAA" transform="translate(0,0)"/>
<path d="" fill="#AAAAAA" transform="translate(0,0)"/>
<path d="" fill="#FFFFFF" transform="translate(0,0)"/>
<path d="" fill="#FFFFFF" transform="translate(0,0)"/>
<path d="" fill="#FFFFFF" transform="translate(0,0)"/>
<path d="" fill="#FFFFFF" transform="translate(0,0)"/>
<path d="" fill="#FFFFFF" transform="translate(0,0)"/>
<path d="" fill="#FFFFFF" transform="translate(0,0)"/>
<path d="" fill="#FFFFFF" transform="translate(0,0)"/>
<path d="" fill="#FFFFFF" transform="translate(0,0)"/>
<path d="" fill="#BFBFBF" transform="translate(0,0)"/>
<path d="" fill="#AAAAAA" transform="translate(0,0)"/>
<path d="" fill="#FFFFFF" transform="translate(0,0)"/>
<path d="" fill="#7F7F7F" transform="translate(0,0)"/>
<path d="" fill="#7F7F7F" transform="translate(0,0)"/>
<path d="" fill="#7F7F7F" transform="translate(0,0)"/>
<path d="" fill="#FFFFFF" transform="translate(0,0)"/>
<path d="" fill="#999999" transform="translate(0,0)"/>
<path d="" fill="#FFFFFF" transform="translate(0,0)"/>
<path d="" fill="#FFFFFF" transform="translate(0,0)"/>
<path d="" fill="#FFFFFF" transform="translate(0,0)"/>
<path d="" fill="#FFFFFF" transform="translate(0,0)"/>
<path d="" fill="#FFFFFF" transform="translate(0,0)"/>
<path d="" fill="#7F7F7F" transform="translate(0,0)"/>
<path d="" fill="#AAAAAA" transform="translate(0,0)"/>
<path d="" fill="#AAAAAA" transform="translate(0,0)"/>
<path d="" fill="#555555" transform="translate(0,0)"/>
<path d="" fill="#AAAAAA" transform="translate(0,0)"/>
<path d="" fill="#FFFFFF" transform="translate(0,0)"/>
<path d="" fill="#FFFFFF" transform="translate(0,0)"/>
<path d="" fill="#AAAAAA" transform="translate(0,0)"/>
<path d="" fill="#FFFFFF" transform="translate(0,0)"/>
<path d="" fill="#AAAAAA" transform="translate(0,0)"/>
<path d="" fill="#999999" transform="translate(0,0)"/>
<path d="" fill="#FFFFFF" transform="translate(0,0)"/>
<path d="" fill="#FFFFFF" transform="translate(0,0)"/>
<path d="" fill="#FFFFFF" transform="translate(0,0)"/>
<path d="" fill="#BFBFBF" transform="translate(0,0)"/>
<path d="" fill="#7F7F7F" transform="translate(0,0)"/>
<path d="" fill="#FFFFFF" transform="translate(0,0)"/>
<path d="" fill="#FFFFFF" transform="translate(0,0)"/>
<path d="" fill="#AAAAAA" transform="translate(0,0)"/>
<path d="" fill="#BFBFBF" transform="translate(0,0)"/>
<path d="" fill="#7F7FFF" transform="translate(0,0)"/>
<path d="" fill="#7F7F7F" transform="translate(0,0)"/>
<path d="" fill="#7F7F7F" transform="translate(0,0)"/>
<path d="" fill="#FFFFFF" transform="translate(0,0)"/>
<path d="" fill="#CCCCCC" transform="translate(0,0)"/>
<path d="" fill="#FFFFFF" transform="translate(0,0)"/>
<path d="" fill="#FFFFFF" transform="translate(0,0)"/>
<path d="" fill="#FFFFFF" transform="translate(0,0)"/>
<path d="" fill="#FFFFFF" transform="translate(0,0)"/>
<path d="" fill="#FFFFFF" transform="translate(0,0)"/>
<path d="" fill="#FFFFFF" transform="translate(0,0)"/>
<path d="" fill="#AAAAAA" transform="translate(0,0)"/>
<path d="" fill="#FFFFFF" transform="translate(0,0)"/>
<path d="" fill="#AAAAAA" transform="translate(0,0)"/>
<path d="" fill="#AAAAAA" transform="translate(0,0)"/>
<path d="" fill="#FFFFFF" transform="translate(0,0)"/>
<path d="" fill="#FFFFFF" transform="translate(0,0)"/>
<path d="" fill="#AAAAAA" transform="translate(0,0)"/>
<path d="" fill="#AAAAAA" transform="translate(0,0)"/>
<path d="" fill="#FFFFFF" transform="translate(0,0)"/>
<path d="" fill="#7F7F7F" transform="translate(0,0)"/>
<path d="" fill="#BFBFBF" transform="translate(0,0)"/>
<path d="" fill="#FFFFFF" transform="translate(0,0)"/>
<path d="" fill="#FFFFFF" transform="translate(0,0)"/>
<path d="" fill="#BFBFBF" transform="translate(0,0)"/>
<path d="" fill="#FFFFFF" transform="translate(0,0)"/>
<path d="" fill="#FFFFFF" transform="translate(0,0)"/>
<path d="" fill="#AAAAAA" transform="translate(0,0)"/>
<path d="" fill="#BFBFBF" transform="translate(0,0)"/>
<path d="" fill="#FFFFFF" transform="translate(0,0)"/>
<path d="" fill="#FFFFFF" transform="translate(0,0)"/>
</svg>
